<mxfile host="65bd71144e">
    <diagram id="IuSyXXIK6ueMWL0XJZz_" name="Page-1">
        <mxGraphModel dx="987" dy="743" grid="1" gridSize="10" guides="1" tooltips="1" connect="1" arrows="1" fold="1" page="1" pageScale="1" pageWidth="1169" pageHeight="1654" math="0" shadow="0">
            <root>
                <mxCell id="0"/>
                <mxCell id="1" parent="0"/>
                <mxCell id="2" value="14 steps" style="rounded=0;whiteSpace=wrap;html=1;" parent="1" vertex="1">
                    <mxGeometry x="40" y="120" width="400" height="40" as="geometry"/>
                </mxCell>
                <mxCell id="3" value="3 steps" style="rounded=0;whiteSpace=wrap;html=1;" parent="1" vertex="1">
                    <mxGeometry x="440" y="120" width="120" height="40" as="geometry"/>
                </mxCell>
                <mxCell id="4" value="14 steps" style="rounded=0;whiteSpace=wrap;html=1;" parent="1" vertex="1">
                    <mxGeometry x="80" y="160" width="400" height="40" as="geometry"/>
                </mxCell>
                <mxCell id="5" value="3 steps" style="rounded=0;whiteSpace=wrap;html=1;" parent="1" vertex="1">
                    <mxGeometry x="480" y="160" width="120" height="40" as="geometry"/>
                </mxCell>
                <mxCell id="6" value="14 steps" style="rounded=0;whiteSpace=wrap;html=1;" parent="1" vertex="1">
                    <mxGeometry x="120" y="200" width="400" height="40" as="geometry"/>
                </mxCell>
                <mxCell id="7" value="3 steps" style="rounded=0;whiteSpace=wrap;html=1;" parent="1" vertex="1">
                    <mxGeometry x="520" y="200" width="120" height="40" as="geometry"/>
                </mxCell>
                <mxCell id="8" value="14 steps" style="rounded=0;whiteSpace=wrap;html=1;" parent="1" vertex="1">
                    <mxGeometry x="160" y="240" width="400" height="40" as="geometry"/>
                </mxCell>
                <mxCell id="9" value="3 steps" style="rounded=0;whiteSpace=wrap;html=1;" parent="1" vertex="1">
                    <mxGeometry x="560" y="240" width="120" height="40" as="geometry"/>
                </mxCell>
                <mxCell id="10" value="14 steps" style="rounded=0;whiteSpace=wrap;html=1;" parent="1" vertex="1">
                    <mxGeometry x="40" y="360" width="400" height="40" as="geometry"/>
                </mxCell>
                <mxCell id="11" value="" style="rounded=0;whiteSpace=wrap;html=1;" parent="1" vertex="1">
                    <mxGeometry x="440" y="360" width="120" height="40" as="geometry"/>
                </mxCell>
                <mxCell id="12" value="" style="rounded=0;whiteSpace=wrap;html=1;fillColor=#f8cecc;strokeColor=#b85450;" parent="1" vertex="1">
                    <mxGeometry x="440" y="360" width="40" height="40" as="geometry"/>
                </mxCell>
                <mxCell id="13" value="14 steps" style="rounded=0;whiteSpace=wrap;html=1;" parent="1" vertex="1">
                    <mxGeometry x="80" y="400" width="400" height="40" as="geometry"/>
                </mxCell>
                <mxCell id="14" value="" style="rounded=0;whiteSpace=wrap;html=1;" parent="1" vertex="1">
                    <mxGeometry x="480" y="400" width="120" height="40" as="geometry"/>
                </mxCell>
                <mxCell id="15" value="" style="rounded=0;whiteSpace=wrap;html=1;fillColor=#f8cecc;strokeColor=#b85450;" parent="1" vertex="1">
                    <mxGeometry x="480" y="400" width="40" height="40" as="geometry"/>
                </mxCell>
                <mxCell id="16" value="14 steps" style="rounded=0;whiteSpace=wrap;html=1;" parent="1" vertex="1">
                    <mxGeometry x="120" y="440" width="400" height="40" as="geometry"/>
                </mxCell>
                <mxCell id="17" value="" style="rounded=0;whiteSpace=wrap;html=1;" parent="1" vertex="1">
                    <mxGeometry x="520" y="440" width="120" height="40" as="geometry"/>
                </mxCell>
                <mxCell id="18" value="" style="rounded=0;whiteSpace=wrap;html=1;fillColor=#f8cecc;strokeColor=#b85450;" parent="1" vertex="1">
                    <mxGeometry x="520" y="440" width="40" height="40" as="geometry"/>
                </mxCell>
                <mxCell id="19" value="14 steps" style="rounded=0;whiteSpace=wrap;html=1;" parent="1" vertex="1">
                    <mxGeometry x="40" y="520" width="400" height="40" as="geometry"/>
                </mxCell>
                <mxCell id="20" value="" style="rounded=0;whiteSpace=wrap;html=1;" parent="1" vertex="1">
                    <mxGeometry x="440" y="520" width="120" height="40" as="geometry"/>
                </mxCell>
                <mxCell id="21" value="" style="rounded=0;whiteSpace=wrap;html=1;fillColor=#f8cecc;strokeColor=#b85450;" parent="1" vertex="1">
                    <mxGeometry x="480" y="520" width="40" height="40" as="geometry"/>
                </mxCell>
                <mxCell id="22" value="14 steps" style="rounded=0;whiteSpace=wrap;html=1;" parent="1" vertex="1">
                    <mxGeometry x="80" y="560" width="400" height="40" as="geometry"/>
                </mxCell>
                <mxCell id="23" value="" style="rounded=0;whiteSpace=wrap;html=1;" parent="1" vertex="1">
                    <mxGeometry x="480" y="560" width="120" height="40" as="geometry"/>
                </mxCell>
                <mxCell id="24" value="" style="rounded=0;whiteSpace=wrap;html=1;fillColor=#f8cecc;strokeColor=#b85450;" parent="1" vertex="1">
                    <mxGeometry x="520" y="560" width="40" height="40" as="geometry"/>
                </mxCell>
                <mxCell id="25" value="14 steps" style="rounded=0;whiteSpace=wrap;html=1;" parent="1" vertex="1">
                    <mxGeometry x="120" y="600" width="400" height="40" as="geometry"/>
                </mxCell>
                <mxCell id="26" value="" style="rounded=0;whiteSpace=wrap;html=1;" parent="1" vertex="1">
                    <mxGeometry x="520" y="600" width="120" height="40" as="geometry"/>
                </mxCell>
                <mxCell id="27" value="" style="rounded=0;whiteSpace=wrap;html=1;fillColor=#f8cecc;strokeColor=#b85450;" parent="1" vertex="1">
                    <mxGeometry x="560" y="600" width="40" height="40" as="geometry"/>
                </mxCell>
                <mxCell id="28" value="14 steps" style="rounded=0;whiteSpace=wrap;html=1;" parent="1" vertex="1">
                    <mxGeometry x="40" y="680" width="400" height="40" as="geometry"/>
                </mxCell>
                <mxCell id="29" value="" style="rounded=0;whiteSpace=wrap;html=1;" parent="1" vertex="1">
                    <mxGeometry x="440" y="680" width="120" height="40" as="geometry"/>
                </mxCell>
                <mxCell id="30" value="" style="rounded=0;whiteSpace=wrap;html=1;fillColor=#f8cecc;strokeColor=#b85450;" parent="1" vertex="1">
                    <mxGeometry x="520" y="680" width="40" height="40" as="geometry"/>
                </mxCell>
                <mxCell id="31" value="14 steps" style="rounded=0;whiteSpace=wrap;html=1;" parent="1" vertex="1">
                    <mxGeometry x="80" y="720" width="400" height="40" as="geometry"/>
                </mxCell>
                <mxCell id="32" value="" style="rounded=0;whiteSpace=wrap;html=1;" parent="1" vertex="1">
                    <mxGeometry x="480" y="720" width="120" height="40" as="geometry"/>
                </mxCell>
                <mxCell id="33" value="" style="rounded=0;whiteSpace=wrap;html=1;fillColor=#f8cecc;strokeColor=#b85450;" parent="1" vertex="1">
                    <mxGeometry x="560" y="720" width="40" height="40" as="geometry"/>
                </mxCell>
                <mxCell id="34" value="14 steps" style="rounded=0;whiteSpace=wrap;html=1;" parent="1" vertex="1">
                    <mxGeometry x="120" y="760" width="400" height="40" as="geometry"/>
                </mxCell>
                <mxCell id="35" value="" style="rounded=0;whiteSpace=wrap;html=1;" parent="1" vertex="1">
                    <mxGeometry x="520" y="760" width="120" height="40" as="geometry"/>
                </mxCell>
                <mxCell id="36" value="" style="rounded=0;whiteSpace=wrap;html=1;fillColor=#f8cecc;strokeColor=#b85450;" parent="1" vertex="1">
                    <mxGeometry x="600" y="760" width="40" height="40" as="geometry"/>
                </mxCell>
                <mxCell id="37" value="" style="endArrow=none;html=1;" parent="1" edge="1">
                    <mxGeometry width="50" height="50" relative="1" as="geometry">
                        <mxPoint x="40" y="900" as="sourcePoint"/>
                        <mxPoint x="40" y="1010" as="targetPoint"/>
                    </mxGeometry>
                </mxCell>
                <mxCell id="38" value="" style="endArrow=none;html=1;" parent="1" edge="1">
                    <mxGeometry width="50" height="50" relative="1" as="geometry">
                        <mxPoint x="40" y="1010" as="sourcePoint"/>
                        <mxPoint x="280" y="1010" as="targetPoint"/>
                    </mxGeometry>
                </mxCell>
                <mxCell id="40" value="" style="curved=1;endArrow=classic;html=1;" parent="1" edge="1">
                    <mxGeometry width="50" height="50" relative="1" as="geometry">
                        <mxPoint x="55" y="980" as="sourcePoint"/>
                        <mxPoint x="245" y="960" as="targetPoint"/>
                        <Array as="points">
                            <mxPoint x="155" y="950"/>
                        </Array>
                    </mxGeometry>
                </mxCell>
                <mxCell id="41" value="" style="curved=1;endArrow=classic;html=1;fillColor=#f8cecc;strokeColor=#b85450;" parent="1" edge="1">
                    <mxGeometry width="50" height="50" relative="1" as="geometry">
                        <mxPoint x="55" y="970" as="sourcePoint"/>
                        <mxPoint x="245" y="950" as="targetPoint"/>
                        <Array as="points">
                            <mxPoint x="155" y="950"/>
                        </Array>
                    </mxGeometry>
                </mxCell>
                <mxCell id="43" value="" style="endArrow=none;html=1;" parent="1" edge="1">
                    <mxGeometry width="50" height="50" relative="1" as="geometry">
                        <mxPoint x="320" y="900" as="sourcePoint"/>
                        <mxPoint x="320" y="1010" as="targetPoint"/>
                    </mxGeometry>
                </mxCell>
                <mxCell id="44" value="" style="endArrow=none;html=1;" parent="1" edge="1">
                    <mxGeometry width="50" height="50" relative="1" as="geometry">
                        <mxPoint x="320" y="1010" as="sourcePoint"/>
                        <mxPoint x="560" y="1010" as="targetPoint"/>
                    </mxGeometry>
                </mxCell>
                <mxCell id="45" value="" style="curved=1;endArrow=classic;html=1;" parent="1" edge="1">
                    <mxGeometry width="50" height="50" relative="1" as="geometry">
                        <mxPoint x="335" y="980" as="sourcePoint"/>
                        <mxPoint x="525" y="960" as="targetPoint"/>
                        <Array as="points">
                            <mxPoint x="435" y="950"/>
                        </Array>
                    </mxGeometry>
                </mxCell>
                <mxCell id="46" value="" style="curved=1;endArrow=classic;html=1;fillColor=#f8cecc;strokeColor=#b85450;" parent="1" edge="1">
                    <mxGeometry width="50" height="50" relative="1" as="geometry">
                        <mxPoint x="335" y="961" as="sourcePoint"/>
                        <mxPoint x="525" y="941" as="targetPoint"/>
                        <Array as="points">
                            <mxPoint x="435" y="941"/>
                        </Array>
                    </mxGeometry>
                </mxCell>
                <mxCell id="47" value="" style="endArrow=none;html=1;" parent="1" edge="1">
                    <mxGeometry width="50" height="50" relative="1" as="geometry">
                        <mxPoint x="585" y="900" as="sourcePoint"/>
                        <mxPoint x="585" y="1010" as="targetPoint"/>
                    </mxGeometry>
                </mxCell>
                <mxCell id="48" value="" style="endArrow=none;html=1;" parent="1" edge="1">
                    <mxGeometry width="50" height="50" relative="1" as="geometry">
                        <mxPoint x="585" y="1010" as="sourcePoint"/>
                        <mxPoint x="825" y="1010" as="targetPoint"/>
                    </mxGeometry>
                </mxCell>
                <mxCell id="49" value="" style="curved=1;endArrow=classic;html=1;" parent="1" edge="1">
                    <mxGeometry width="50" height="50" relative="1" as="geometry">
                        <mxPoint x="600" y="981" as="sourcePoint"/>
                        <mxPoint x="790" y="961" as="targetPoint"/>
                        <Array as="points">
                            <mxPoint x="700" y="951"/>
                        </Array>
                    </mxGeometry>
                </mxCell>
                <mxCell id="50" value="" style="curved=1;endArrow=classic;html=1;fillColor=#f8cecc;strokeColor=#b85450;" parent="1" edge="1">
                    <mxGeometry width="50" height="50" relative="1" as="geometry">
                        <mxPoint x="600" y="950" as="sourcePoint"/>
                        <mxPoint x="790" y="930" as="targetPoint"/>
                        <Array as="points">
                            <mxPoint x="700" y="930"/>
                        </Array>
                    </mxGeometry>
                </mxCell>
                <mxCell id="51" value="prediction 1 step" style="text;html=1;align=center;verticalAlign=middle;resizable=0;points=[];autosize=1;strokeColor=none;fillColor=none;fontColor=#FF3333;" parent="1" vertex="1">
                    <mxGeometry x="120" y="920" width="100" height="20" as="geometry"/>
                </mxCell>
                <mxCell id="52" value="prediction 2 step" style="text;html=1;align=center;verticalAlign=middle;resizable=0;points=[];autosize=1;strokeColor=none;fillColor=none;fontColor=#FF3333;" parent="1" vertex="1">
                    <mxGeometry x="390" y="920" width="100" height="20" as="geometry"/>
                </mxCell>
                <mxCell id="57" value="prediction 3 step" style="text;html=1;align=center;verticalAlign=middle;resizable=0;points=[];autosize=1;strokeColor=none;fillColor=none;fontColor=#FF3333;" parent="1" vertex="1">
                    <mxGeometry x="650" y="910" width="100" height="20" as="geometry"/>
                </mxCell>
            </root>
        </mxGraphModel>
    </diagram>
    <diagram id="Bj9B_Y--z2pmSyizmt28" name="Page-2">
        <mxGraphModel dx="987" dy="597" grid="1" gridSize="10" guides="1" tooltips="1" connect="1" arrows="1" fold="1" page="1" pageScale="1" pageWidth="1169" pageHeight="1654" math="0" shadow="0">
            <root>
                <mxCell id="sB8YAYz7QcZGuJRVKmw0-0"/>
                <mxCell id="sB8YAYz7QcZGuJRVKmw0-1" parent="sB8YAYz7QcZGuJRVKmw0-0"/>
                <mxCell id="ts--D-MzJ0YDKVRXLPve-2" style="edgeStyle=none;html=1;exitX=0.5;exitY=1;exitDx=0;exitDy=0;entryX=0.5;entryY=0;entryDx=0;entryDy=0;" edge="1" parent="sB8YAYz7QcZGuJRVKmw0-1" source="ts--D-MzJ0YDKVRXLPve-0" target="ts--D-MzJ0YDKVRXLPve-1">
                    <mxGeometry relative="1" as="geometry"/>
                </mxCell>
                <mxCell id="ts--D-MzJ0YDKVRXLPve-0" value="246 Investment IDs" style="rounded=0;whiteSpace=wrap;html=1;" vertex="1" parent="sB8YAYz7QcZGuJRVKmw0-1">
                    <mxGeometry x="120" y="120" width="200" height="40" as="geometry"/>
                </mxCell>
                <mxCell id="ts--D-MzJ0YDKVRXLPve-4" style="edgeStyle=none;html=1;exitX=0.5;exitY=1;exitDx=0;exitDy=0;entryX=0.5;entryY=0;entryDx=0;entryDy=0;" edge="1" parent="sB8YAYz7QcZGuJRVKmw0-1" source="ts--D-MzJ0YDKVRXLPve-1" target="ts--D-MzJ0YDKVRXLPve-3">
                    <mxGeometry relative="1" as="geometry"/>
                </mxCell>
                <mxCell id="ts--D-MzJ0YDKVRXLPve-1" value="246 Investment IDs" style="rounded=0;whiteSpace=wrap;html=1;" vertex="1" parent="sB8YAYz7QcZGuJRVKmw0-1">
                    <mxGeometry x="120" y="200" width="200" height="40" as="geometry"/>
                </mxCell>
                <mxCell id="ts--D-MzJ0YDKVRXLPve-3" value="create_dataset (original,&amp;nbsp;" style="rounded=0;whiteSpace=wrap;html=1;align=left;" vertex="1" parent="sB8YAYz7QcZGuJRVKmw0-1">
                    <mxGeometry x="120" y="280" width="200" height="100" as="geometry"/>
                </mxCell>
            </root>
        </mxGraphModel>
    </diagram>
</mxfile>